<svg xmlns="http://www.w3.org/2000/svg" width="168" height="150.2"><path d="M133 137.5c-36.6 0-49.6-32-50.7-48.8 23.3-5.4 54.8-13.8 85.7-29-3.5-14.6-11.4-40.9-47.7-40.9-20.1 0-40.5 10.2-52.4 29.7-2.1-1.7-4.5-3.2-7.2-4.5C32 30.6 32 24.8 32 19.8 32 9.4 41.8 9.2 42.6 9.2c13.7 0 19.5 17.3 20.2 23.3h10c0-9 0-18.1-2.1-26.8C65.2 3.2 56.5 0 42.4 0 14.3 0 .8 11.5.8 29.1c0 20.2 18.1 26.6 31.8 33.7 11.4 6 15.2 12.7 15.2 17 0 5.8-1.7 11.3-12 11.3-9.8 0-21.6-10.6-23.9-29.6H0c0 12 1.9 24 3.3 31.9 10.4 4.8 19.5 7.2 32 7.2 8.2 0 15.9-.9 22.6-3.2 3.9 33.3 30.1 52.9 61.6 52.7 27.1-.2 41.7-16.4 46-20.5l-4.3-5c-3.8 2-11.6 12.9-28.2 12.9zM112.4 28.2c20.6 0 27.4 16.3 31.2 33.1-19 6.2-41.8 11.9-61.3 15.5 0-19.9 7-48.6 30.1-48.6z" fill="#fff"/></svg>