<?xml version="1.0" encoding="utf-8"?>
<!-- Generator: Adobe Illustrator 22.1.0, SVG Export Plug-In . SVG Version: 6.00 Build 0)  -->
<svg version="1.1" id="Layer_2" xmlns="http://www.w3.org/2000/svg" xmlns:xlink="http://www.w3.org/1999/xlink" x="0px" y="0px"
	 width="168px" height="150.2px" viewBox="0 0 168 150.2" style="enable-background:new 0 0 168 150.2;" xml:space="preserve">
<style type="text/css">
	.st0{fill:#FFFFFF;}
</style>
<path class="st0" d="M133,137.5c-36.6,0-49.6-32-50.7-48.8c23.3-5.4,54.8-13.8,85.7-29c-3.5-14.6-11.4-40.9-47.7-40.9
	c-20.1,0-40.5,10.2-52.4,29.7c-2.1-1.7-4.5-3.2-7.2-4.5C32,30.6,32,24.8,32,19.8C32,9.4,41.8,9.2,42.6,9.2
	c13.7,0,19.5,17.3,20.2,23.3h10c0-9,0-18.1-2.1-26.8C65.2,3.2,56.5,0,42.4,0C14.3,0,0.8,11.5,0.8,29.1c0,20.2,18.1,26.6,31.8,33.7
	c11.4,6,15.2,12.7,15.2,17c0,5.8-1.7,11.3-12,11.3c-9.8,0-21.6-10.6-23.9-29.6H0c0,12,1.9,24,3.3,31.9c10.4,4.8,19.5,7.2,32,7.2
	c8.2,0,15.9-0.9,22.6-3.2c3.9,33.3,30.1,52.9,61.6,52.7c27.1-0.2,41.7-16.4,46-20.5l-4.3-5C157.4,126.6,149.6,137.5,133,137.5z
	 M112.4,28.2c20.6,0,27.4,16.3,31.2,33.1c-19,6.2-41.8,11.9-61.3,15.5C82.3,56.9,89.3,28.2,112.4,28.2z"/>
</svg>
