<svg version="1.1" id="Layer_1" xmlns="http://www.w3.org/2000/svg" x="0" y="0" width="116.68" height="44.81" xml:space="preserve"><style>.st2{fill-rule:evenodd;clip-rule:evenodd;fill:#fffffe}</style><defs><filter id="Adobe_OpacityMaskFilter" filterUnits="userSpaceOnUse" x=".03" y="0" width="116.65" height="34.21"><feColorMatrix values="1 0 0 0 0 0 1 0 0 0 0 0 1 0 0 0 0 0 1 0"/></filter></defs><mask maskUnits="userSpaceOnUse" x=".03" y="0" width="116.65" height="34.21" id="a_1_"><path d="M.03 0h116.65v34.21H.03V0z" fill-rule="evenodd" clip-rule="evenodd" fill="#fff" filter="url(#Adobe_OpacityMaskFilter)"/></mask><path d="M.03 34.21h116.65V0H.03v34.21z" mask="url(#a_1_)" fill-rule="evenodd" clip-rule="evenodd" fill="#da2f2a"/><path class="st2" d="M20.28 20.51h-3.93v-4.6h8.8v3.97c0 6.32-4.14 9.9-9.77 9.9-6.36 0-10.64-4.92-10.64-12.68 0-7.48 4.45-12.68 10.81-12.68 4.97 0 7.61 2.35 9.21 6.15l-4.62 1.93c-.9-1.83-2.02-3.2-4.66-3.2-3.65 0-5.74 3.23-5.74 7.8 0 4.53 2.12 7.87 5.77 7.87 4.01 0 4.61-2.52 4.76-3.72.03-.31.05-.48.04-.74M52.59 29.4V4.81h16.9v4.81H57.46v5.09h9.02v4.78h-9.02v5.09h12.03v4.81l-16.9.01zM89.82 29.4h5.35L85.93 4.81H81.2L71.88 29.4h5.21s.8-2.28 1.82-5.23H88c1.03 2.95 1.82 5.23 1.82 5.23m-9.28-9.91c1.44-4.15 2.8-8.11 2.92-8.53.11.42 1.48 4.39 2.91 8.53h-5.83zM104.95 9.66V29.4h-4.87V9.66h-6.99V4.81h18.85v4.85h-6.99z"/><defs><filter id="Adobe_OpacityMaskFilter_1_" filterUnits="userSpaceOnUse" x="29.2" y="4.81" width="19.71" height="24.58"><feColorMatrix values="1 0 0 0 0 0 1 0 0 0 0 0 1 0 0 0 0 0 1 0"/></filter></defs><mask maskUnits="userSpaceOnUse" x="29.2" y="4.81" width="19.71" height="24.58" id="b_1_"><path d="M.03-.19h48.88v39.91H.03V-.19z" fill-rule="evenodd" clip-rule="evenodd" fill="#fff" filter="url(#Adobe_OpacityMaskFilter_1_)"/></mask><path d="M40.43 15.91h-6.36V9.59h6.36c2.16 0 3.48.91 3.48 3.12-.01 2.15-1.22 3.2-3.48 3.2zm8.48-3.3c0-5.23-3.79-7.8-8.38-7.8H29.2V29.4h4.87v-8.85h4.9l4.35 8.85h5.6l-4.66-9.55c3.09-1.24 4.65-3.55 4.65-7.24z" mask="url(#b_1_)" fill-rule="evenodd" clip-rule="evenodd" fill="#fffffe"/><path class="st2" d="M3.78 41.63c.37-.23.6-.62.6-1.11 0-.98-.69-1.51-1.79-1.51H0v5.7h2.56c1.21 0 2.01-.64 2.01-1.84 0-.62-.34-1.03-.79-1.24zM1.1 40.07h1.44c.49 0 .69.19.69.55 0 .32-.17.54-.64.54H1.1v-1.09zm1.5 3.57H1.1v-1.47h1.5c.55 0 .81.24.81.73 0 .45-.26.74-.81.74zM7.93 40.13H6.45v1.47h1.48c.52 0 .81-.24.81-.74-.01-.52-.31-.73-.81-.73zm.67 4.59l-1.01-2.05H6.45v2.05H5.32v-5.7h2.63c1.06 0 1.94.59 1.94 1.81 0 .86-.36 1.39-1.08 1.68l1.08 2.22-1.29-.01zM10.76 44.72h1.13v-5.71h-1.13v5.71zM15.24 40.14v4.58h-1.13v-4.58h-1.62v-1.12h4.37v1.12h-1.62zM19.18 41.33c-.11-.33-.23-.68-.28-.89-.06.21-.17.55-.28.89l-.36 1.03h1.29l-.37-1.03zm1.19 3.39l-.44-1.27h-2.06l-.44 1.27h-1.21l2.16-5.71h1.1l2.14 5.71h-1.25zM22.34 44.72h1.13v-5.71h-1.13v5.71zM28 44.72l-2.07-3.11c-.14-.21-.32-.5-.4-.64 0 .21.02.93.02 1.25v2.51h-1.11v-5.71h1.08l2 3.01c.14.21.32.5.4.64 0-.21-.02-.93-.02-1.25v-2.41h1.11v5.71H28zM36.07 43.5c.25-.39.46-.87.64-1.43l-.91-.29c-.14.38-.27.68-.4.95l-1.56-1.79c-.18-.21-.3-.38-.3-.62s.2-.37.53-.37c.4 0 .81.12 1.18.41l.54-.82c-.54-.39-.99-.6-1.69-.6-.95 0-1.68.48-1.68 1.41 0 .46.19.82.49 1.16l.14.16c-.72.36-1.15.84-1.15 1.64 0 1.03.7 1.52 1.85 1.52.66 0 1.2-.19 1.64-.55l.43.47h1.29l-1.04-1.25zm-2.17.3c-.56 0-.85-.24-.85-.6 0-.34.18-.63.62-.87l1.1 1.22c-.23.17-.52.25-.87.25zM43.06 44.72l-2.07-3.11c-.14-.21-.32-.5-.39-.64 0 .21.02.93.02 1.25v2.51h-1.11v-5.71h1.08l2 3.01c.14.21.32.5.4.64 0-.21-.02-.93-.02-1.25v-2.41h1.11v5.71h-1.02zM47.26 38.93c-1.54 0-2.45 1.21-2.45 2.94 0 1.74.91 2.94 2.45 2.94s2.45-1.21 2.45-2.94c.01-1.74-.9-2.94-2.45-2.94zm0 4.75c-.91 0-1.29-.79-1.29-1.81s.38-1.81 1.29-1.81 1.29.79 1.29 1.81-.37 1.81-1.29 1.81zM53.07 40.13h-1.48v1.47h1.48c.52 0 .81-.24.81-.74 0-.52-.31-.73-.81-.73zm.67 4.59l-1.01-2.05h-1.14v2.05h-1.13v-5.7h2.63c1.06 0 1.94.59 1.94 1.81 0 .86-.36 1.39-1.08 1.68l1.08 2.22-1.29-.01zM58.01 40.14v4.58h-1.13v-4.58h-1.62v-1.12h4.37v1.12h-1.62zM63.6 44.72v-2.4h-2.31v2.4h-1.13v-5.71h1.13v2.18h2.31v-2.18h1.13v5.71H63.6zM65.78 44.72v-5.71h3.92v1.12h-2.79v.99h1.62v1.11h-1.62v1.38h2.91v1.12h-4.04zM73.22 40.13h-1.48v1.47h1.48c.52 0 .81-.24.81-.74 0-.52-.31-.73-.81-.73zm.67 4.59l-1.01-2.05h-1.14v2.05h-1.13v-5.7h2.63c1.07 0 1.94.59 1.94 1.81 0 .86-.36 1.39-1.08 1.68l1.08 2.22-1.29-.01zM79.53 44.72l-2.07-3.11c-.14-.21-.32-.5-.39-.64 0 .21.02.93.02 1.25v2.51h-1.11v-5.71h1.08l2 3.01c.14.21.32.5.4.64 0-.21-.02-.93-.02-1.25v-2.41h1.11v5.71h-1.02zM83.93 44.72h1.13v-5.71h-1.13v5.71zM88.79 40.13h-1.48v1.47h1.48c.52 0 .81-.24.81-.74-.01-.52-.31-.73-.81-.73zm.67 4.59l-1.01-2.05h-1.14v2.05h-1.13v-5.7h2.63c1.06 0 1.94.59 1.94 1.81 0 .86-.36 1.39-1.08 1.68l1.08 2.22-1.29-.01zM91.7 44.72v-5.71h3.92v1.12h-2.79v.99h1.62v1.11h-1.62v1.38h2.91v1.12H91.7zM96.54 44.72v-5.71h1.13v4.58h2.83v1.13h-3.96zM103.7 41.33c-.11-.33-.23-.68-.28-.89-.06.21-.17.55-.28.89l-.36 1.03h1.29l-.37-1.03zm1.19 3.39l-.44-1.27h-2.06l-.44 1.27h-1.21l2.16-5.71h1.1l2.15 5.71h-1.26zM110.18 44.72l-2.07-3.11c-.14-.21-.32-.5-.4-.64 0 .21.02.93.02 1.25v2.51h-1.11v-5.71h1.08l2 3.01c.14.21.32.5.4.64 0-.21-.02-.93-.02-1.25v-2.41h1.11v5.71h-1.01zM113.8 40.13h-.6v3.49h.56c1.18 0 1.73-.7 1.73-1.74 0-1.18-.5-1.75-1.69-1.75zm-.04 4.59h-1.69v-5.7h1.77c1.61 0 2.81.76 2.81 2.85 0 2-1.44 2.85-2.89 2.85z"/></svg>